<svg width="40" height="40" viewBox="0 0 40 40" fill="none" xmlns="http://www.w3.org/2000/svg">
<path d="M31.6667 5H8.33333C6.49238 5 5 6.49238 5 8.33333V31.6667C5 33.5076 6.49238 35 8.33333 35H31.6667C33.5076 35 35 33.5076 35 31.6667V8.33333C35 6.49238 33.5076 5 31.6667 5Z" stroke="black" stroke-width="2" stroke-linecap="round" stroke-linejoin="round"/>
<path d="M14.1666 16.6667C15.5473 16.6667 16.6666 15.5475 16.6666 14.1667C16.6666 12.786 15.5473 11.6667 14.1666 11.6667C12.7859 11.6667 11.6666 12.786 11.6666 14.1667C11.6666 15.5475 12.7859 16.6667 14.1666 16.6667Z" stroke="black" stroke-width="2" stroke-linecap="round" stroke-linejoin="round"/>
<path d="M35 25.0001L26.6667 16.6667L8.33337 35.0001" stroke="black" stroke-width="2" stroke-linecap="round" stroke-linejoin="round"/>
</svg>
