<svg width="16" height="16" viewBox="0 0 16 16" fill="none" xmlns="http://www.w3.org/2000/svg">
<path d="M3.60001 11.6001L9.20001 7.6001L12.4 10.8001" stroke="#171A1F" stroke-width="0.8" stroke-miterlimit="10" stroke-linecap="round" stroke-linejoin="round"/>
<path d="M13.2 14.0001L2.8 14.0001C2.3584 14.0001 2 13.6417 2 13.2001L2 4.4001C2 3.9585 2.3584 3.6001 2.8 3.6001L13.2 3.6001C13.6416 3.6001 14 3.9585 14 4.4001L14 13.2001C14 13.6417 13.6416 14.0001 13.2 14.0001Z" stroke="#171A1F" stroke-width="0.8" stroke-miterlimit="10" stroke-linecap="round" stroke-linejoin="round"/>
<path d="M4.39999 2L4.39999 3.6" stroke="#171A1F" stroke-width="0.8" stroke-miterlimit="10" stroke-linecap="round" stroke-linejoin="round"/>
<path d="M11.6 2V3.6" stroke="#171A1F" stroke-width="0.8" stroke-miterlimit="10" stroke-linecap="round" stroke-linejoin="round"/>
<path d="M5.2 8.0001C5.86274 8.0001 6.4 7.46284 6.4 6.8001C6.4 6.13736 5.86274 5.6001 5.2 5.6001C4.53726 5.6001 4 6.13736 4 6.8001C4 7.46284 4.53726 8.0001 5.2 8.0001Z" fill="#171A1F"/>
</svg>
