<svg width="24" height="24" viewBox="0 0 24 24" fill="none" xmlns="http://www.w3.org/2000/svg">
<path d="M12 7.71436L12 12.0001L15.4286 15.4286" stroke="#E05858" stroke-width="2.05714" stroke-miterlimit="10" stroke-linecap="square"/>
<path d="M4.25657 2.68286L3.63171 7.65172L8.51057 6.29229" stroke="#E05858" stroke-width="2.05714" stroke-miterlimit="10" stroke-linecap="square"/>
<path d="M3.63171 7.65178C4.69388 5.60559 6.46893 4.01947 8.62127 3.19332C10.7736 2.36716 13.154 2.35822 15.3125 3.16819C17.471 3.97816 19.2579 5.5509 20.3354 7.58905C21.4129 9.6272 21.7063 11.9895 21.1602 14.2293C20.614 16.4691 19.2661 18.4312 17.3714 19.7446C15.4767 21.058 13.1664 21.6317 10.8773 21.3572C8.58827 21.0827 6.47913 19.979 4.94867 18.2548C3.4182 16.5307 2.57249 14.3055 2.57143 12.0001" stroke="#E05858" stroke-width="2.05714" stroke-miterlimit="10"/>
</svg>
