<svg width="40" height="40" viewBox="0 0 40 40" fill="none" xmlns="http://www.w3.org/2000/svg">
<path d="M5 10H8.33333H35" stroke="black" stroke-width="2" stroke-linecap="round" stroke-linejoin="round"/>
<path d="M13.3334 9.99992V6.66659C13.3334 5.78253 13.6846 4.93468 14.3097 4.30956C14.9348 3.68444 15.7827 3.33325 16.6667 3.33325H23.3334C24.2174 3.33325 25.0653 3.68444 25.6904 4.30956C26.3155 4.93468 26.6667 5.78253 26.6667 6.66659V9.99992M31.6667 9.99992V33.3333C31.6667 34.2173 31.3155 35.0652 30.6904 35.6903C30.0653 36.3154 29.2174 36.6666 28.3334 36.6666H11.6667C10.7827 36.6666 9.93481 36.3154 9.30968 35.6903C8.68456 35.0652 8.33337 34.2173 8.33337 33.3333V9.99992H31.6667Z" stroke="black" stroke-width="2" stroke-linecap="round" stroke-linejoin="round"/>
<path d="M16.6666 18.3333V28.3333" stroke="black" stroke-width="2" stroke-linecap="round" stroke-linejoin="round"/>
<path d="M23.3334 18.3333V28.3333" stroke="black" stroke-width="2" stroke-linecap="round" stroke-linejoin="round"/>
<path d="M5 10H8.33333H35" stroke="black" stroke-width="2" stroke-linecap="round" stroke-linejoin="round"/>
<path d="M13.3334 9.99992V6.66659C13.3334 5.78253 13.6846 4.93468 14.3097 4.30956C14.9348 3.68444 15.7827 3.33325 16.6667 3.33325H23.3334C24.2174 3.33325 25.0653 3.68444 25.6904 4.30956C26.3155 4.93468 26.6667 5.78253 26.6667 6.66659V9.99992M31.6667 9.99992V33.3333C31.6667 34.2173 31.3155 35.0652 30.6904 35.6903C30.0653 36.3154 29.2174 36.6666 28.3334 36.6666H11.6667C10.7827 36.6666 9.93481 36.3154 9.30968 35.6903C8.68456 35.0652 8.33337 34.2173 8.33337 33.3333V9.99992H31.6667Z" stroke="black" stroke-width="2" stroke-linecap="round" stroke-linejoin="round"/>
<path d="M16.6666 18.3333V28.3333" stroke="black" stroke-width="2" stroke-linecap="round" stroke-linejoin="round"/>
<path d="M23.3334 18.3333V28.3333" stroke="black" stroke-width="2" stroke-linecap="round" stroke-linejoin="round"/>
<path d="M13.3333 10.0002V6.66683C13.3333 5.78277 13.6844 4.93493 14.3096 4.30981C14.9347 3.68469 15.7825 3.3335 16.6666 3.3335H23.3333C24.2173 3.3335 25.0652 3.68469 25.6903 4.30981C26.3154 4.93493 26.6666 5.78277 26.6666 6.66683V10.0002M31.6666 10.0002V33.3335C31.6666 34.2176 31.3154 35.0654 30.6903 35.6905C30.0652 36.3156 29.2173 36.6668 28.3333 36.6668H11.6666C10.7825 36.6668 9.93468 36.3156 9.30956 35.6905C8.68444 35.0654 8.33325 34.2176 8.33325 33.3335V10.0002H31.6666Z" stroke="black" stroke-width="2" stroke-linecap="round" stroke-linejoin="round"/>
</svg>
