<?xml version="1.0" standalone="no"?>
<!DOCTYPE svg PUBLIC "-//W3C//DTD SVG 20010904//EN"
 "http://www.w3.org/TR/2001/REC-SVG-20010904/DTD/svg10.dtd">
<svg version="1.0" xmlns="http://www.w3.org/2000/svg"
 width="480.000000pt" height="480.000000pt" viewBox="0 0 480.000000 480.000000"
 preserveAspectRatio="xMidYMid meet">
<metadata>
Created by potrace 1.15, written by Peter Selinger 2001-2017
</metadata>
<g transform="translate(0.000000,480.000000) scale(0.100000,-0.100000)"
fill="#000000" stroke="none">
<path d="M1917 4244 c-4 -4 -7 -25 -7 -46 0 -34 3 -38 26 -38 23 0 25 3 22 42
-3 41 -22 60 -41 42z"/>
<path d="M2659 4208 c-2 -27 3 -63 10 -71 4 -4 15 -5 25 -1 13 5 16 16 14 43
-2 29 -8 37 -25 39 -14 2 -23 -2 -24 -10z"/>
<path d="M2306 4005 c-15 -23 -15 -28 -1 -54 21 -42 35 -48 57 -21 23 28 24
86 2 94 -28 11 -41 6 -58 -19z"/>
<path d="M1240 3975 c-6 -8 -10 -29 -8 -47 2 -25 8 -33 23 -33 16 0 21 8 23
41 3 45 -17 65 -38 39z"/>
<path d="M1672 3928 c-26 -26 -1 -108 33 -108 32 0 52 93 23 111 -19 12 -42
11 -56 -3z"/>
<path d="M3307 3913 c-10 -9 -8 -66 2 -82 23 -36 60 35 39 73 -9 17 -30 21
-41 9z"/>
<path d="M2907 3846 c-19 -28 -10 -74 17 -90 36 -23 76 70 44 102 -19 19 -44
14 -61 -12z"/>
<path d="M1982 3697 c-39 -40 -41 -70 -6 -102 31 -29 51 -31 82 -9 47 33 48
78 2 124 -28 28 -41 25 -78 -13z"/>
<path d="M2485 3684 c-31 -23 -27 -90 8 -120 30 -25 48 -23 90 14 27 24 17 91
-17 114 -18 12 -60 8 -81 -8z"/>
<path d="M1142 3604 c-39 -27 -25 -104 19 -104 42 0 60 81 24 106 -18 12 -24
12 -43 -2z"/>
<path d="M1502 3527 c-12 -6 -30 -26 -39 -44 -15 -32 -15 -36 4 -60 31 -43 49
-50 80 -33 58 33 61 100 5 132 -20 12 -32 13 -50 5z"/>
<path d="M3438 3528 c-19 -15 -31 -77 -19 -96 5 -8 21 -12 37 -10 27 3 29 6
28 46 -1 52 -22 79 -46 60z"/>
<path d="M2968 3506 c-31 -23 -38 -60 -20 -97 20 -40 51 -48 88 -24 35 23 45
54 28 87 -23 45 -63 59 -96 34z"/>
<path d="M2182 3458 c-33 -16 -65 -75 -64 -115 3 -69 85 -136 144 -118 37 11
78 56 89 97 25 96 -78 179 -169 136z"/>
<path d="M724 3446 c-11 -28 1 -61 22 -64 17 -2 23 4 28 29 3 17 3 35 0 40 -8
14 -44 10 -50 -5z"/>
<path d="M3827 3424 c-14 -14 -7 -75 9 -81 21 -8 35 15 32 52 -3 29 -25 44
-41 29z"/>
<path d="M1795 3401 c-27 -11 -51 -40 -64 -74 -14 -37 1 -95 34 -131 20 -22
33 -26 76 -26 46 0 55 4 84 34 54 58 51 121 -10 175 -37 32 -77 39 -120 22z"/>
<path d="M2549 3371 c-29 -29 -39 -47 -39 -71 0 -45 25 -93 59 -113 34 -20 99
-22 122 -4 26 19 59 80 59 106 0 35 -46 107 -72 115 -57 15 -90 7 -129 -33z"/>
<path d="M1129 3165 c-14 -8 -32 -28 -39 -45 -11 -28 -11 -34 7 -57 29 -40 48
-49 77 -35 14 6 32 23 42 37 14 21 14 30 4 55 -11 27 -45 61 -60 60 -3 -1 -17
-7 -31 -15z"/>
<path d="M1424 3161 c-65 -40 -69 -125 -8 -186 42 -42 95 -48 138 -14 71 56
73 155 4 203 -30 22 -96 20 -134 -3z"/>
<path d="M2925 3171 c-29 -12 -54 -44 -65 -81 -7 -25 -5 -40 10 -70 38 -74 97
-98 160 -65 33 17 80 80 80 108 0 26 -47 93 -76 106 -29 13 -80 14 -109 2z"/>
<path d="M3337 3122 c-35 -36 -34 -53 4 -97 35 -39 45 -42 75 -17 31 26 46 60
38 85 -18 62 -73 75 -117 29z"/>
<path d="M782 3088 c-18 -18 -14 -73 6 -91 10 -10 21 -17 25 -17 16 0 37 35
37 64 0 35 -15 56 -40 56 -9 0 -21 -5 -28 -12z"/>
<path d="M3778 2983 c-9 -2 -18 -12 -20 -21 -5 -20 8 -72 21 -85 15 -15 50 11
60 46 7 26 5 35 -11 50 -11 9 -23 16 -27 16 -3 -1 -14 -3 -23 -6z"/>
<path d="M1204 2831 c-30 -18 -64 -74 -64 -105 0 -30 38 -91 65 -106 61 -32
137 -3 170 66 16 34 16 38 -1 76 -35 79 -107 108 -170 69z"/>
<path d="M3142 2830 c-44 -27 -74 -77 -67 -113 12 -69 81 -124 140 -113 50 10
95 66 95 119 0 101 -86 157 -168 107z"/>
<path d="M422 2808 c-16 -16 -15 -63 2 -77 12 -10 18 -7 32 14 13 21 15 31 6
50 -13 28 -22 31 -40 13z"/>
<path d="M4109 2727 c-15 -34 3 -77 30 -70 26 7 29 54 5 77 -20 21 -22 20 -35
-7z"/>
<path d="M934 2682 c-41 -33 -48 -59 -24 -97 12 -19 30 -37 41 -40 23 -8 75
27 84 56 10 29 -14 79 -42 90 -32 12 -34 12 -59 -9z"/>
<path d="M3515 2648 c-20 -23 -25 -38 -20 -57 15 -61 73 -81 113 -38 29 31 28
72 -3 102 -32 33 -58 31 -90 -7z"/>
<path d="M617 2486 c-10 -10 -12 -26 -8 -52 11 -70 64 -69 77 2 10 54 -33 86
-69 50z"/>
<path d="M1155 2446 c-91 -40 -104 -140 -28 -207 76 -67 183 -9 183 100 0 37
-6 49 -39 82 -42 42 -66 47 -116 25z"/>
<path d="M3240 2447 c-32 -16 -70 -73 -70 -106 0 -14 9 -45 19 -68 16 -35 26
-44 61 -53 55 -15 94 -5 123 30 85 101 -19 255 -133 197z"/>
<path d="M3851 2361 c-13 -23 -4 -76 14 -91 33 -27 73 37 51 81 -15 31 -51 37
-65 10z"/>
<path d="M922 2183 c-16 -6 -42 -56 -42 -81 0 -10 15 -32 33 -50 31 -30 34
-31 56 -16 13 9 29 31 36 48 11 25 11 35 -1 58 -20 39 -50 54 -82 41z"/>
<path d="M3533 2138 c-33 -38 -36 -58 -11 -94 27 -40 43 -47 68 -34 55 29 68
90 27 128 -30 28 -58 28 -84 0z"/>
<path d="M425 2066 c-3 -9 -7 -22 -9 -30 -7 -22 19 -50 38 -43 24 9 19 80 -7
85 -9 2 -19 -4 -22 -12z"/>
<path d="M1204 2041 c-30 -18 -64 -74 -64 -105 0 -30 38 -91 65 -106 63 -34
140 -2 169 70 15 38 15 43 -2 77 -20 43 -73 83 -111 83 -14 0 -40 -9 -57 -19z"/>
<path d="M3154 2050 c-27 -11 -72 -65 -80 -96 -7 -28 35 -106 69 -129 64 -42
167 23 167 106 0 93 -77 151 -156 119z"/>
<path d="M4084 2016 c-10 -26 0 -71 16 -71 15 0 30 49 22 73 -6 16 -31 15 -38
-2z"/>
<path d="M740 1870 c-14 -9 -18 -79 -5 -100 18 -28 75 13 75 53 0 23 -27 57
-46 57 -5 0 -16 -4 -24 -10z"/>
<path d="M3732 1754 c-25 -17 -31 -71 -10 -92 45 -45 99 43 58 93 -16 19 -20
19 -48 -1z"/>
<path d="M1455 1710 c-35 -14 -66 -57 -72 -97 -6 -48 26 -100 80 -126 34 -17
41 -18 75 -4 94 37 110 167 28 221 -27 17 -78 20 -111 6z"/>
<path d="M2914 1704 c-64 -31 -83 -112 -40 -175 46 -68 132 -67 190 1 41 49
37 102 -13 151 -43 44 -82 50 -137 23z"/>
<path d="M1115 1685 c-32 -31 -33 -75 -2 -102 44 -40 75 -35 103 18 20 41 11
75 -26 94 -39 20 -47 19 -75 -10z"/>
<path d="M3306 1659 c-14 -17 -26 -35 -26 -41 0 -15 40 -78 50 -78 5 0 15 -3
24 -6 17 -7 76 51 76 75 0 7 -9 29 -21 47 -28 45 -67 46 -103 3z"/>
<path d="M1793 1489 c-64 -19 -102 -104 -72 -162 49 -94 155 -100 209 -12 59
96 -29 207 -137 174z"/>
<path d="M2591 1483 c-20 -10 -43 -34 -54 -56 -17 -33 -18 -44 -8 -76 6 -21
23 -50 37 -65 22 -21 36 -26 79 -26 47 0 56 4 79 31 14 17 29 41 32 55 25 98
-78 183 -165 137z"/>
<path d="M674 1407 c-3 -9 -4 -28 -2 -44 2 -20 8 -28 23 -28 17 0 20 7 20 40
0 30 -4 41 -18 43 -9 2 -20 -3 -23 -11z"/>
<path d="M2172 1384 c-52 -36 -67 -115 -32 -171 39 -64 118 -77 169 -29 62 59
62 138 0 191 -36 29 -102 34 -137 9z"/>
<path d="M3815 1348 c-11 -39 -11 -69 2 -80 17 -14 29 -3 36 38 8 40 -26 77
-38 42z"/>
<path d="M1039 1327 c-17 -37 1 -81 33 -85 34 -4 50 19 46 65 -3 35 -6 38 -35
41 -27 3 -35 -1 -44 -21z"/>
<path d="M1482 1343 c-16 -6 -42 -57 -42 -82 0 -12 13 -35 29 -53 28 -31 29
-32 55 -15 14 10 33 28 42 42 14 21 14 30 4 55 -18 42 -56 66 -88 53z"/>
<path d="M2950 1314 c-40 -34 -41 -83 -3 -119 15 -14 31 -25 34 -25 12 0 59
42 69 61 14 26 -12 82 -45 97 -21 10 -29 7 -55 -14z"/>
<path d="M3340 1252 c-18 -15 -21 -24 -15 -54 13 -66 70 -60 76 8 3 29 -14 64
-31 64 -4 0 -18 -8 -30 -18z"/>
<path d="M2476 1114 c-41 -41 -26 -109 27 -127 25 -8 33 -5 58 19 16 15 29 36
29 47 0 21 -18 59 -34 69 -19 13 -64 9 -80 -8z"/>
<path d="M1945 1095 c-30 -30 -32 -64 -4 -99 27 -34 63 -34 94 0 30 33 32 63
4 98 -26 33 -62 34 -94 1z"/>
<path d="M1568 953 c-25 -6 -33 -59 -14 -88 29 -44 80 -21 78 36 -1 29 -24 62
-41 58 -3 -1 -14 -3 -23 -6z"/>
<path d="M2796 919 c-13 -19 -13 -60 0 -81 3 -4 16 -8 30 -8 17 0 27 8 35 26
23 61 -30 112 -65 63z"/>
<path d="M1174 846 c-8 -34 4 -68 24 -64 20 4 34 62 19 77 -18 18 -36 12 -43
-13z"/>
<path d="M3261 851 c-15 -28 2 -71 29 -71 19 0 21 5 18 42 -3 48 -29 64 -47
29z"/>
<path d="M2188 805 c-17 -38 0 -80 32 -80 20 0 27 7 34 36 12 48 3 69 -29 69
-18 0 -29 -8 -37 -25z"/>
<path d="M2592 598 c-14 -14 -16 -57 -3 -77 16 -25 41 -4 41 32 0 40 -20 63
-38 45z"/>
<path d="M1874 586 c-3 -8 -4 -27 -2 -43 2 -20 8 -28 23 -28 22 0 30 24 21 61
-7 26 -33 33 -42 10z"/>
</g>
</svg>
